<svg width="26" height="25" viewBox="0 0 26 25" fill="none" xmlns="http://www.w3.org/2000/svg">
<path d="M11.5 17.375L17.3375 13C17.675 12.75 17.675 12.25 17.3375 12L11.5 7.625C11.0875 7.3125 10.5 7.6125 10.5 8.125V16.875C10.5 17.3875 11.0875 17.6875 11.5 17.375ZM13 0C6.1 0 0.5 5.6 0.5 12.5C0.5 19.4 6.1 25 13 25C19.9 25 25.5 19.4 25.5 12.5C25.5 5.6 19.9 0 13 0ZM13 22.5C7.4875 22.5 3 18.0125 3 12.5C3 6.9875 7.4875 2.5 13 2.5C18.5125 2.5 23 6.9875 23 12.5C23 18.0125 18.5125 22.5 13 22.5Z" fill="#76808C"/>
</svg>
