<svg width="26" height="25" viewBox="0 0 26 25" fill="none" xmlns="http://www.w3.org/2000/svg">
<path d="M12.9875 0C6.0875 0 0.5 5.6 0.5 12.5C0.5 19.4 6.0875 25 12.9875 25C19.9 25 25.5 19.4 25.5 12.5C25.5 5.6 19.9 0 12.9875 0ZM13 22.5C7.475 22.5 3 18.025 3 12.5C3 6.975 7.475 2.5 13 2.5C18.525 2.5 23 6.975 23 12.5C23 18.025 18.525 22.5 13 22.5ZM12.725 6.25H12.65C12.15 6.25 11.75 6.65 11.75 7.15V13.05C11.75 13.4875 11.975 13.9 12.3625 14.125L17.55 17.2375C17.975 17.4875 18.525 17.3625 18.775 16.9375C19.0375 16.5125 18.9 15.95 18.4625 15.7L13.625 12.825V7.15C13.625 6.65 13.225 6.25 12.725 6.25Z" fill="#76808C"/>
</svg>
